<?xml version="1.0" encoding="utf-8"?>
<!-- Svg Vector Icons : http://www.onlinewebfonts.com/icon -->
<!DOCTYPE svg PUBLIC "-//W3C//DTD SVG 1.1//EN" "http://www.w3.org/Graphics/SVG/1.1/DTD/svg11.dtd">
<svg version="1.1" xmlns="http://www.w3.org/2000/svg" xmlns:xlink="http://www.w3.org/1999/xlink" x="0px" y="0px" viewBox="0 0 1000 1000" enable-background="new 0 0 1000 1000" xml:space="preserve">
<metadata> Svg Vector Icons : http://www.onlinewebfonts.com/icon </metadata>
<g><g transform="matrix(1 0 0 -1 0 1920)"><path d="M403,930c-25.2,0-49.6,5-73.2,15.1c-23.6,10-44.2,24.2-61.8,42.5c-3.3,3.1-5,6.9-5,11.4c0,5.8,2.4,10.7,7.2,14.5l50.7,40.4c3.6,2.8,7.8,4.2,12.6,4.2c5.8,0,11.2-1.9,16-5.7c16.3-13,34.1-19.4,53.4-19.4h12.8c0,0,4.3,0.3,12.8,0.8c8.5,0.5,13,1.2,13.3,2.1c0.4,0.9,4.6,2.2,12.8,4c8.1,1.8,12.5,4,13,6.7c0.5,2.7,4.6,6,12.2,10.1c7.6,4.1,11.8,8.7,12.4,13.9c0.6,5.2,4.3,11.4,11.1,18.5s10.2,15,10.3,23.6c4.3,11.2,9.3,22,15.1,32.4c5.7,10.4,12.5,20.5,20.2,30.1c7.8,9.7,14.9,18.2,21.4,25.5c6.5,7.4,14.9,15.8,25.4,25.2s18.7,16.7,25,21.9c6.2,5.2,15.1,12.5,26.5,21.9l0.4,0.4c14.2,11.7,25,20.6,32.2,26.7c7.2,6.1,16.9,14.9,29,26.5c12.1,11.6,21.2,21.4,27.5,29.6c6.2,8.1,13.4,18.6,21.5,31.5c8.1,12.8,14.1,25.4,17.9,37.6c3.8,12.2,7.2,26.4,10.1,42.5c2.9,16.1,4.4,33.1,4.4,50.9c0,39.4-7.7,77.2-23.1,113.3c-15.4,36.1-36.1,67.2-62.2,93.2c-26.1,26.1-57.1,46.8-93.2,62.2s-73.9,23.1-113.3,23.1c-35.6,0-69.9-6.4-103-19.3c-33-12.8-62.2-30.3-87.5-52.2c-25.3-22-46.6-48.4-64.1-79.1c-17.4-30.8-28.7-63.4-33.7-98c-0.8-5.3-3.2-9.7-7.2-13.2c-4.1-3.4-8.8-4.9-14.1-4.4l-64.4,5.3c-5.3,0.3-9.7,2.4-13,6.5c-3.3,4.1-4.7,8.8-4.2,14.1c3.8,27.2,10.3,53.8,19.4,79.9c9.2,26.1,20.8,50.4,34.9,73c14.1,22.6,30.2,43.8,48.2,63.5c18,19.7,38,37.3,59.9,52.8c21.9,15.5,44.9,28.8,69.2,39.8c24.3,11.1,50,19.5,77,25.4c27.1,5.8,54.6,8.8,82.6,8.8c35.8,0,70.8-4.8,104.9-14.3c34.1-9.5,65.5-22.8,94.4-39.7c28.9-16.9,55.4-37.5,79.7-61.8c24.3-24.3,44.9-50.8,62-79.7c17-28.9,30.3-60.4,39.7-94.6c9.4-34.2,14.1-69.1,14.1-104.7c0-21.6-1.3-42.2-4-61.8c-2.7-19.6-7.1-37.8-13.2-54.7c-6.1-16.9-12.2-32.3-18.3-46.3c-6.1-14-14.4-27.9-25-41.8c-10.6-13.9-19.6-25.5-27.3-34.9c-7.6-9.4-18-20.1-31.1-32.2c-13.1-12.1-23.3-21.2-30.5-27.3c-7.2-6.1-17.6-14.7-31.1-25.9c-12.2-9.9-21.4-17.5-27.5-22.7c-6.1-5.2-13.9-12.2-23.5-21c-9.5-8.8-17-16.4-22.3-22.9c-5.3-6.5-10.7-14-16.2-22.5c-5.5-8.5-9.9-17-13.2-25.4c-6.1-15.8-13-30.3-20.6-43.5c-7.6-13.2-15.2-24.5-22.7-33.9c-7.5-9.4-16-17.9-25.4-25.4c-9.4-7.5-17.9-13.6-25.5-18.3c-7.6-4.7-16.4-8.8-26.3-12.2c-9.9-3.4-18.2-5.9-24.8-7.4c-6.6-1.5-14.6-2.7-23.8-3.6c-9.3-0.9-16.1-1.4-20.6-1.5C415.9,930.1,410.1,930,403,930z M396.1,1203.8c-19.8,0-39.9,2.2-60.2,6.5c-2.8,0.5-5.3,1.6-7.4,3.2s-3.8,3.7-5,6.3c-1.1,2.5-1.7,5.1-1.7,7.6c0,1.8,0.3,3.6,0.8,5.3l18.3,62.2c1.3,4.6,3.8,8.2,7.6,10.9c3.8,2.7,8.1,4,13,4c1.3,0,2.4-0.1,3.4-0.4c11.4-1.8,22.1-2.7,32-2.7c14,0,25.4,1.9,34.3,5.7c5.3,2.3,11.4,6.2,18.1,11.6c6.7,5.5,13.5,12.2,20.4,20.2c6.9,8,12.6,17.8,17.2,29.4c4.6,11.6,6.9,23.5,6.9,35.7c0,11.2-1.9,22.4-5.7,33.6c-3.6,9.9-9.4,19-17.5,27.3c-8.1,8.3-17.6,15.1-28.4,20.6c-10.8,5.5-22.1,10.3-33.7,14.5c-11.7,4.2-23.6,7.5-35.7,9.9c-12.1,2.4-22.7,4.2-31.8,5.3c-9.2,1.1-17.3,1.7-24.4,1.7c-17.3,0.5-30.9,7.8-40.8,21.7c-6.4,8.9-9.5,18.8-9.5,29.7c0,5.6,0.9,10.9,2.7,16c16.3,50.1,45.5,90.6,87.7,121.5c42.2,30.9,89.5,46.3,141.9,46.3c32.8,0,64.1-6.4,94-19.3c29.9-12.8,55.6-30.1,77.2-51.7c21.6-21.6,38.8-47.3,51.7-77.2s19.3-61.2,19.3-94c0-5.8-0.3-11.8-0.8-17.9c-0.3-4.8-2.5-8.8-6.7-11.8c-4.2-3-9-4.2-14.3-3.4l-64.1,9.9c-4.8,0.8-9,2.4-12.4,4.8c-3.4,2.4-5.1,5-5.1,7.8c0,1,0.1,2.7,0.2,5.1c0.1,2.4,0.2,4.3,0.2,5.5c0,25.2-6.2,48.4-18.7,69.8s-29.4,38.3-50.7,50.7s-44.6,18.7-69.8,18.7c-30.8,0-58.5-9.3-83.1-27.8c-3.3-2.8-5-5.6-5-8.4c0-4.3,3.1-7.4,9.2-9.2c13.7-3.8,26.8-8.1,39.1-13c12.3-4.8,25.2-11.1,38.7-18.9c13.5-7.8,25.5-16.2,36.2-25.4c10.7-9.2,20.7-20.2,29.9-33.2c9.3-13,16.5-26.9,21.5-41.9c7.9-22.4,11.8-44.9,11.8-67.5c0-22.1-3.7-43.8-11.2-65c-7.5-21.2-17.3-39.9-29.4-56.1c-12.1-16.1-25.3-30.3-39.7-42.3c-14.4-12.1-28.9-21.3-43.7-27.6C450.9,1208.6,425.4,1203.8,396.1,1203.8z"/></g></g>
</svg>